# xmcd
#
# Track frame offsets:
#	150
#	16780
#	41195
#	57100
#	78885
#	98397
#	120305
#	139097
#	155117
#	174220
#
# Disc length: 2588 seconds
#
# Revision: 1
# Processed by: cddbd v1.5.2PL0 Copyright (c) Steve Scherf et al.
# Submitted via: EasyCDDAExtractor 10.0.6.1
#
DISCID=6c0a1a0a
DTITLE=eysuhl™ 윤명운 - 윤명운 [1995 King ksc5015] Blues House
DYEAR=1995
DGENRE=Blues
TTITLE0=내 모습 본적 있소? (When ZZ Top met Elmore James)
TTITLE1=태양 아씨
TTITLE2=김치 Rag
TTITLE3=어떤 하루
TTITLE4=이렇게 태어났다
TTITLE5=명운이의 Blues
TTITLE6=아침 기다리며
TTITLE7=할머니 Blues
TTITLE8=누구없소?
TTITLE9=부루스를 위한 Blues
EXTD=YEAR: 1995 ID3G: 0
EXTT0=
EXTT1=
EXTT2=
EXTT3=
EXTT4=
EXTT5=
EXTT6=
EXTT7=
EXTT8=
EXTT9=
PLAYORDER=
